<mxfile host="app.diagrams.net" modified="2022-09-08T05:20:36.659Z" agent="5.0 (Macintosh; Intel Mac OS X 10_15_7) AppleWebKit/537.36 (KHTML, like Gecko) Chrome/105.0.0.0 Safari/537.36" etag="u7xJbXZ67PNvIfsq9CnT" version="20.3.0" type="github">
  <diagram id="rcKAAidCJGl-sdPucONh" name="第 1 页">
    <mxGraphModel dx="975" dy="779" grid="1" gridSize="10" guides="1" tooltips="1" connect="1" arrows="1" fold="1" page="1" pageScale="1" pageWidth="1169" pageHeight="1654" math="0" shadow="0">
      <root>
        <mxCell id="0" />
        <mxCell id="1" parent="0" />
        <mxCell id="GUJzmmyOBOLlKJLuiO69-10" value="" style="group" parent="1" vertex="1" connectable="0">
          <mxGeometry x="170" y="370" width="620" height="180" as="geometry" />
        </mxCell>
        <mxCell id="GUJzmmyOBOLlKJLuiO69-1" value="&lt;span style=&quot;font-size: 22px;&quot;&gt;&lt;b&gt;size&lt;/b&gt;&lt;/span&gt;" style="rounded=0;whiteSpace=wrap;html=1;strokeWidth=2;" parent="GUJzmmyOBOLlKJLuiO69-10" vertex="1">
          <mxGeometry width="120" height="60" as="geometry" />
        </mxCell>
        <mxCell id="GUJzmmyOBOLlKJLuiO69-2" value="&lt;span style=&quot;font-size: 22px;&quot;&gt;&lt;b&gt;operating&lt;/b&gt;&lt;/span&gt;" style="rounded=0;whiteSpace=wrap;html=1;strokeWidth=2;" parent="GUJzmmyOBOLlKJLuiO69-10" vertex="1">
          <mxGeometry x="120" width="120" height="60" as="geometry" />
        </mxCell>
        <mxCell id="GUJzmmyOBOLlKJLuiO69-3" value="&lt;span style=&quot;font-size: 22px;&quot;&gt;&lt;b&gt;data&amp;nbsp;&lt;/b&gt;&lt;/span&gt;" style="rounded=0;whiteSpace=wrap;html=1;strokeWidth=2;" parent="GUJzmmyOBOLlKJLuiO69-10" vertex="1">
          <mxGeometry x="240" width="230" height="60" as="geometry" />
        </mxCell>
        <mxCell id="GUJzmmyOBOLlKJLuiO69-4" value="&lt;span style=&quot;font-size: 22px;&quot;&gt;&lt;b&gt;size&lt;/b&gt;&lt;/span&gt;" style="rounded=0;whiteSpace=wrap;html=1;strokeWidth=2;" parent="GUJzmmyOBOLlKJLuiO69-10" vertex="1">
          <mxGeometry y="60" width="120" height="60" as="geometry" />
        </mxCell>
        <mxCell id="GUJzmmyOBOLlKJLuiO69-5" value="&lt;span style=&quot;font-size: 22px;&quot;&gt;&lt;b&gt;operating&lt;/b&gt;&lt;/span&gt;" style="rounded=0;whiteSpace=wrap;html=1;strokeWidth=2;" parent="GUJzmmyOBOLlKJLuiO69-10" vertex="1">
          <mxGeometry x="120" y="60" width="120" height="60" as="geometry" />
        </mxCell>
        <mxCell id="GUJzmmyOBOLlKJLuiO69-6" value="&lt;span style=&quot;font-size: 22px;&quot;&gt;&lt;b&gt;data&amp;nbsp;&lt;/b&gt;&lt;/span&gt;" style="rounded=0;whiteSpace=wrap;html=1;strokeWidth=2;" parent="GUJzmmyOBOLlKJLuiO69-10" vertex="1">
          <mxGeometry x="240" y="60" width="380" height="60" as="geometry" />
        </mxCell>
        <mxCell id="GUJzmmyOBOLlKJLuiO69-7" value="&lt;span style=&quot;font-size: 22px;&quot;&gt;&lt;b&gt;size&lt;/b&gt;&lt;/span&gt;" style="rounded=0;whiteSpace=wrap;html=1;strokeWidth=2;" parent="GUJzmmyOBOLlKJLuiO69-10" vertex="1">
          <mxGeometry y="120" width="120" height="60" as="geometry" />
        </mxCell>
        <mxCell id="GUJzmmyOBOLlKJLuiO69-8" value="&lt;span style=&quot;font-size: 22px;&quot;&gt;&lt;b&gt;operating&lt;/b&gt;&lt;/span&gt;" style="rounded=0;whiteSpace=wrap;html=1;strokeWidth=2;" parent="GUJzmmyOBOLlKJLuiO69-10" vertex="1">
          <mxGeometry x="120" y="120" width="120" height="60" as="geometry" />
        </mxCell>
        <mxCell id="GUJzmmyOBOLlKJLuiO69-9" value="&lt;span style=&quot;font-size: 22px;&quot;&gt;&lt;b&gt;data&amp;nbsp;&lt;/b&gt;&lt;/span&gt;" style="rounded=0;whiteSpace=wrap;html=1;strokeWidth=2;" parent="GUJzmmyOBOLlKJLuiO69-10" vertex="1">
          <mxGeometry x="240" y="120" width="300" height="60" as="geometry" />
        </mxCell>
        <mxCell id="GUJzmmyOBOLlKJLuiO69-11" value="" style="shape=curlyBracket;whiteSpace=wrap;html=1;rounded=1;strokeWidth=2;fontSize=22;rotation=90;" parent="1" vertex="1">
          <mxGeometry x="220" y="291" width="20" height="120" as="geometry" />
        </mxCell>
        <mxCell id="GUJzmmyOBOLlKJLuiO69-12" value="&lt;b&gt;8 Byte&lt;/b&gt;" style="text;html=1;align=center;verticalAlign=middle;resizable=0;points=[];autosize=1;strokeColor=none;fillColor=none;fontSize=22;" parent="1" vertex="1">
          <mxGeometry x="185" y="300" width="90" height="40" as="geometry" />
        </mxCell>
        <mxCell id="GUJzmmyOBOLlKJLuiO69-13" value="" style="shape=curlyBracket;whiteSpace=wrap;html=1;rounded=1;strokeWidth=2;fontSize=22;rotation=90;" parent="1" vertex="1">
          <mxGeometry x="340" y="291" width="20" height="120" as="geometry" />
        </mxCell>
        <mxCell id="GUJzmmyOBOLlKJLuiO69-14" value="&lt;b&gt;1 Byte&lt;/b&gt;" style="text;html=1;align=center;verticalAlign=middle;resizable=0;points=[];autosize=1;strokeColor=none;fillColor=none;fontSize=22;" parent="1" vertex="1">
          <mxGeometry x="305" y="300" width="90" height="40" as="geometry" />
        </mxCell>
        <mxCell id="GUJzmmyOBOLlKJLuiO69-15" value="" style="shape=curlyBracket;whiteSpace=wrap;html=1;rounded=1;strokeWidth=2;fontSize=22;rotation=-90;" parent="1" vertex="1">
          <mxGeometry x="551" y="417" width="20" height="300" as="geometry" />
        </mxCell>
        <mxCell id="GUJzmmyOBOLlKJLuiO69-16" value="&lt;span style=&quot;color: rgb(51, 51, 51); font-family: &amp;quot;Helvetica Neue&amp;quot;, Helvetica, Arial, &amp;quot;Hiragino Sans GB&amp;quot;, &amp;quot;Hiragino Sans GB W3&amp;quot;, &amp;quot;Microsoft YaHei UI&amp;quot;, &amp;quot;Microsoft YaHei&amp;quot;, sans-serif; text-align: start;&quot;&gt;&lt;b style=&quot;&quot;&gt;&lt;font style=&quot;font-size: 22px;&quot;&gt;Uncertainty = size&lt;/font&gt;&lt;/b&gt;&lt;/span&gt;" style="text;html=1;align=center;verticalAlign=middle;resizable=0;points=[];autosize=1;strokeColor=none;fillColor=none;fontSize=22;" parent="1" vertex="1">
          <mxGeometry x="456" y="580" width="210" height="40" as="geometry" />
        </mxCell>
        <mxCell id="GUJzmmyOBOLlKJLuiO69-17" value="" style="shape=curlyBracket;whiteSpace=wrap;html=1;rounded=1;strokeWidth=2;fontSize=22;" parent="1" vertex="1">
          <mxGeometry x="140" y="370" width="20" height="180" as="geometry" />
        </mxCell>
        <mxCell id="GUJzmmyOBOLlKJLuiO69-18" value="WAL" style="text;html=1;align=center;verticalAlign=middle;resizable=0;points=[];autosize=1;strokeColor=none;fillColor=none;fontSize=22;" parent="1" vertex="1">
          <mxGeometry x="70" y="440" width="70" height="40" as="geometry" />
        </mxCell>
        <mxCell id="GUJzmmyOBOLlKJLuiO69-19" value="" style="curved=1;endArrow=classic;html=1;rounded=0;fontSize=22;strokeWidth=2;entryX=0.325;entryY=0.023;entryDx=0;entryDy=0;entryPerimeter=0;" parent="1" target="GUJzmmyOBOLlKJLuiO69-15" edge="1">
          <mxGeometry width="50" height="50" relative="1" as="geometry">
            <mxPoint x="220" y="550" as="sourcePoint" />
            <mxPoint x="420" y="580" as="targetPoint" />
            <Array as="points">
              <mxPoint x="360" y="630" />
            </Array>
          </mxGeometry>
        </mxCell>
        <mxCell id="GUJzmmyOBOLlKJLuiO69-20" value="&lt;b&gt;data = offset + size&lt;/b&gt;" style="text;html=1;align=center;verticalAlign=middle;resizable=0;points=[];autosize=1;strokeColor=none;fillColor=none;fontSize=22;" parent="1" vertex="1">
          <mxGeometry x="240" y="600" width="220" height="40" as="geometry" />
        </mxCell>
      </root>
    </mxGraphModel>
  </diagram>
</mxfile>
